# xmcd
#
# Track frame offsets: 
#        150
#        15749
#        36364
#        50107
#        63595
#        81026
#        94572
#        117068
#        230086
#
# Disc length: 3304 seconds
#
# Revision: 0
# Processed by: cddbd v1.4PL0 Copyright (c) Steve Scherf et al.
# Submitted via: ExactAudioCopy v0.90b4
#
DISCID=720ce609
DTITLE=Van Morrison - Lucerne 20 July 2003
DYEAR=2003
DGENRE=Celtic
TTITLE0=Whining Boy Moan
TTITLE1=All Work And No Play
TTITLE2=Sack O'Woe
TTITLE3=One Of These Days
TTITLE4=Talk Is Cheap
TTITLE5=Don't Worry About A Thing
TTITLE6=Tore Down A La Rimbaud
TTITLE7=Streets Of Arklow
TTITLE8=Mama Don't Allow
EXTD=
EXTT0=
EXTT1=
EXTT2=
EXTT3=
EXTT4=
EXTT5=
EXTT6=
EXTT7=
EXTT8=
PLAYORDER=
